<svg xmlns="http://www.w3.org/2000/svg" width="866" height="215"><path d="m287.375 6.688 3.172-.05c8.696-.005 17.168 1.025 24.89 5.237L318 13l2.015-1.406c4.389-2.344 8.409-2.005 13.311-1.966l3.146-.011c3.427-.008 6.854.005 10.282.02l7.147-.002q7.485 0 14.972.029c6.401.023 12.803.023 19.204.016q7.377-.003 14.755.013 3.54.006 7.082.004c3.296 0 6.593.012 9.889.028l2.965-.007 2.722.021 2.36.007c2.411.285 4.002 1.17 6.15 2.254 2.011-.84 2.011-.84 4-2 2.164-.254 2.164-.254 4.53-.259l2.704-.019 2.91.012 3.037-.005q3.19-.002 6.377.01c3.204.01 6.408 0 9.612-.012 26.697-.018 52.08 3.22 72.123 22.476 11.902 12.36 17.765 27.458 17.868 44.504l.03 3.917.012 4.189.009 2.163q.022 5.678.028 11.354c.006 3.864.03 7.729.058 11.594.019 3.01.024 6.02.026 9.03q.004 2.132.024 4.266c.167 19.274-3.553 36.777-16.348 51.78-2.523 2.547-5.18 4.79-8 7l-1.719 1.512C512.681 199.053 486.938 199.684 464 200l-3.521.078c-3.43.076-6.86.129-10.291.172l-3.18.065c-9.528.041-9.528.041-13.008-3.315-.981-3.626-1.124-7.06-1.12-10.802l-.004-3.514.01-3.828v-4.051q.001-5.489.013-10.976c.006-3.827.006-7.653.008-11.48q.004-10.863.021-21.727.016-12.37.022-24.74.016-25.44.05-50.882l-2.087.988c-3.355 1.166-5.98 1.24-9.526 1.207l-3.78-.02-3.92-.05-3.978-.027Q404.854 57.062 400 57l.006 2.162q.066 26.026.098 52.053.014 12.585.047 25.171.03 10.968.037 21.936.003 5.81.023 11.619.02 5.464.015 10.93c.001 1.978.012 3.956.023 5.935l-.008 3.556.005 3.098C400 196 400 196 398 199c-4.693 1.219-9.464 1.16-14.285 1.168l-2.36.01q-2.457.007-4.914.007c-2.5.002-4.998.02-7.498.04q-2.396.005-4.79.005l-2.252.022c-4.057-.018-7.302-.305-10.901-2.252-1.318-2.636-1.106-4.565-1.082-7.517l.021-3.553.04-3.917.028-4.109q.042-5.587.094-11.175.049-5.835.092-11.671.085-11.055.18-22.11.107-12.585.203-25.168.203-25.89.424-51.78l-2.4.032c-3.595.041-7.191.067-10.788.093-1.245.017-2.491.034-3.775.05l-3.642.02-3.349.032c-3.116-.232-5.276-.802-8.046-2.227l-1-2-.148 1.898-.227 2.477c-.07.812-.14 1.624-.21 2.46C317 62 317 62 315 64c-2.875.375-2.875.375-6 0a179 179 0 0 1-4-4c-7.195-4.84-15.62-5.052-24-4-2.772 1.365-4.504 2.316-6.312 4.813-.933 2.967-1.06 5.084-.688 8.187 2.703 4.934 5.185 7.076 10.25 9.438l1.833.872c4.01 1.888 8.083 3.628 12.16 5.367C310.447 89.896 319.598 96.598 329 106v3h2c8.985 17.772 10.194 34.738 5 54-4.585 13.694-14.44 25.016-27 32-14.437 7.048-29.068 9.472-45 9l-3.059-.086c-12.245-.63-27.113-3.087-36.683-11.434C223 191 223 191 222.625 188.875c.544-4.173 1.962-7.923 3.375-11.875 3.447-9.92 6.088-18.994 6.559-29.52.511-2.874 1.54-4.305 3.441-6.48l5 2v2l1.746.816c2.289 1.202 4.235 2.593 6.316 4.121 7.344 4.932 16.11 7.237 24.938 6.063 6.81-1.59 6.81-1.59 12-6 .649-2.096.649-2.096.813-4.375l.269-2.273c-.101-2.9-.806-4.745-2.082-7.352-5.39-4.878-12.382-7.747-19-10.562-17.628-7.58-31.18-16.145-39.312-34.25-5.874-16.051-5.007-36.376 2.153-52.027 7.35-14.202 18.652-23.45 33.382-29.337 8.393-2.49 16.418-3.163 25.152-3.136M317 32l1 2Zm164 24v97c8.566 0 14.062-.473 20.52-6.238 9.332-11.105 9.838-25.078 9.796-38.867-.003-2.128.02-4.255.045-6.383C511.43 86.925 510 72.354 500 61c-6.553-5.216-10.557-5-19-5" fill="#F29C3F"/><path d="m728.313 10.438 4.013.158q4.838.192 9.674.404l1 3h3l1-3c20.71-1.356 41.428-1.076 62.168-.868 5.119.05 10.237.076 15.356.097 3.965.02 7.93.058 11.895.1q2.835.027 5.67.032c2.62.007 5.238.04 7.857.077l2.352-.01c5.196.112 5.196.112 7.68 2.37 1.588 3.421 1.47 6.847 1.456 10.546l.015 2.442q.01 2.553-.003 5.104c-.008 2.601.02 5.2.052 7.801q.003 2.483-.002 4.965l.034 2.352c-.044 3.387-.28 5.606-2.14 8.475-3.166 2.01-5.385 2.06-9.124 2.126l-3.926.098q-2.045.023-4.09.043-2.069.042-4.137.09-5.055.105-10.113.16c-.74 3.98-1.129 7.75-1.145 11.795l-.02 3.433-.009 3.722-.03 6.008q-.015 3.216-.026 6.432c-.015 4.47-.04 8.94-.065 13.411a24095 24095 0 0 0-.182 38.127q-.042 10.54-.106 21.077a3836 3836 0 0 0-.056 13.34c-.012 3.408-.036 6.815-.058 10.222l-.002 3.747-.03 3.399-.012 2.965C826 197 826 197 824 199c-1.853.274-1.853.274-4.127.306l-2.579.049-2.79.016c-.945.01-1.89.018-2.862.027q-3 .022-6 .028a730 730 0 0 0-9.19.111q-2.912.015-5.823.022l-2.784.059-2.589-.019-2.276.016c-1.98-.615-1.98-.615-3.581-2.79-1.57-3.17-1.77-5.112-1.76-8.627l-.012-3.514.032-3.828v-4.051c-.002-3.659.016-7.318.037-10.976.019-3.827.02-7.653.024-11.48.01-7.242.034-14.484.064-21.727.033-8.246.05-16.493.065-24.74.031-16.96.084-33.921.151-50.882l-2.722-.076q-4.993-.143-9.986-.296-2.16-.065-4.324-.125-3.105-.088-6.21-.187l-3.777-.11C748 56 748 56 746 55l-.007 2.194q-.089 26.4-.229 52.803-.07 12.768-.11 25.535-.034 11.126-.103 22.252-.037 5.893-.049 11.786-.01 5.544-.056 11.088a794 794 0 0 0-.01 6.02l-.037 3.608-.014 3.143C745 196 745 196 743.596 197.833c-2.037 1.489-3.235 1.547-5.744 1.555l-2.519.029-2.708-.019-2.79.01q-2.92.002-5.84-.017c-2.984-.016-5.965 0-8.948.02q-2.835-.004-5.672-.013l-2.708.019-2.519-.029-2.213-.007c-2.561-.504-3.424-1.264-4.935-3.381-.374-2.171-.374-2.171-.372-4.724l-.02-2.906.029-3.143-.002-3.257q.004-3.422.029-6.845c.023-3.452.02-6.903.014-10.355.026-19.912.026-19.912 1.798-29.046 1.285-6.68 1.683-13.164 1.692-19.947l.01-2.615q.007-2.73.007-5.459c.002-2.734.02-5.467.04-8.201.177-16.975.177-16.975-3.225-33.502-.227-3.33-.185-6.664-.187-10l-.038-2.773-.005-2.664-.013-2.434C697 46 697 46 699 43c4.84-1.276 9.778-1.154 14.75-1.125l2.486.008c5.95.045 11.885.241 17.827.554l2.325.12c5.36.317 5.36.317 7.612 1.443v-8l-.96 1.965c-2.61 2.604-4.608 2.542-8.198 2.616l-2.49-.015-2.575.02q-2.696.01-5.391-.01a434 434 0 0 0-8.23.059q-2.621 0-5.242-.006l-2.478.04c-4.203-.068-5.974-.328-9.456-2.897-2.105-2.947-2.604-4.192-2.574-7.749l.008-2.78.086-2.868-.008-2.89c.097-6.87.097-6.87 1.68-9.235 7.265-4.967 21.763-2.181 30.14-1.812" fill="#3C6DAA"/><path d="M674.34 23.992c19.289 18.003 23.597 44.382 24.535 69.559q.066 2.224.125 4.449l.066 2.181c.809 30.007-2.37 61.799-23.87 84.577L673 187l-1.57 1.68c-3.905 3.781-8.565 6.124-13.367 8.57l-2.026 1.036c-15.423 7.55-35.313 7.454-51.572 2.675-17.822-6.462-30.508-17.837-38.895-34.863-5.796-13.051-7.03-25.525-6.968-39.57q-.003-2.486-.01-4.97-.005-5.175.017-10.35c.017-4.39.007-8.779-.01-13.168-.012-3.414-.008-6.828 0-10.242q.004-2.425-.008-4.852c-.032-9.359.546-17.943 3.409-26.946l1.14-3.629c7.112-18.804 19.416-32.309 37.735-40.621 24.884-10.134 53.092-5.104 73.465 12.242M613.312 58.75C599.18 78.612 602.266 112.102 606 135c1.634 7.976 4.591 14.835 10.625 20.438 5.1 3.355 10.471 3.027 16.375 2.562 5.542-1.914 8.343-4.87 11.063-10.008 6.069-12.808 6.124-26.588 6.122-40.504.002-2.22.02-4.44.04-6.66.179-22.478.179-22.478-9.26-42.16-5.495-4.897-8.873-5.975-16.207-5.879-5.213.399-7.86 2.291-11.446 5.961" fill="#35B7C1"/><path d="m442.644 9.628 2.704-.02 2.894.029 3.032-.002q3.18.004 6.36.029c3.195.023 6.39.02 9.585.014 26.669.037 52.055 3.291 72.074 22.525 11.902 12.36 17.765 27.458 17.868 44.504l.03 3.917.012 4.188.009 2.164q.022 5.678.028 11.354c.006 3.864.03 7.729.058 11.594.019 3.01.024 6.02.026 9.03q.004 2.132.024 4.266c.167 19.274-3.553 36.777-16.348 51.78-2.523 2.547-5.18 4.79-8 7l-1.719 1.512C512.681 199.053 486.938 199.684 464 200l-3.521.078c-3.43.076-6.86.129-10.292.172l-3.18.065c-9.527.041-9.527.041-13.007-3.315-1.159-4.108-1.136-8.129-1.154-12.377l-.013-2.221c-.014-2.451-.02-4.902-.026-7.354l-.025-5.278c-.026-5.77-.041-11.54-.055-17.31l-.017-5.958q-.033-12.387-.051-24.773-.023-17.76-.107-35.52-.056-12.486-.063-24.973c-.004-4.974-.016-9.948-.048-14.922q-.044-7.01-.025-14.02 0-2.577-.025-5.153c-.023-2.34-.015-4.678.001-7.018l-.01-3.972C433 13 433 13 435.395 11.078c2.644-1.094 4.407-1.453 7.249-1.45M481 56v97c8.566 0 14.062-.473 20.52-6.238 9.332-11.105 9.838-25.078 9.796-38.867-.003-2.128.02-4.255.045-6.383C511.43 86.925 510 72.354 500 61c-6.553-5.216-10.557-5-19-5" fill="#56AA5A"/><path d="m117.68 9.672 2.215.006q2.312.01 4.624.04c2.342.032 4.682.042 7.024.048l4.512.03 2.096.014c4.38.063 8.538.49 12.849 1.19v2h2l.007 2.06q.089 24.827.229 49.652.07 12.006.11 24.012.034 10.465.103 20.93.037 5.54.049 11.08c.007 4.126.037 8.25.07 12.376l-.005 3.703c.046 8.026.046 8.026 3.437 15.187 3.39 3.067 6.004 4.263 10.5 4.438 4.116-.208 7.057-1.06 10.5-3.438 3.463-4.657 4.122-8.747 4.145-14.44l.02-3.349.009-3.659.03-5.871q.015-3.151.026-6.303c.015-4.378.04-8.756.065-13.134q.104-18.672.182-37.344.042-10.315.106-20.631.04-6.532.056-13.065c.012-3.338.036-6.677.058-10.015l.002-3.671.03-3.331.012-2.906C183 13 183 13 185 11c7.919-1.796 16.595-1.219 24.689-1.24 2.269-.01 4.537-.041 6.805-.072q2.173-.01 4.346-.016l3.949-.028C228 10 228 10 229.885 11.396 233.459 16.538 232.661 23.01 232 29c-1.23 3.18-2.755 6.009-4.398 8.992-7.717 14.493-8.478 34.843-3.915 50.508.979 2.673 2.1 5.13 3.518 7.598 3.52 6.35 4.528 11.323 4.424 18.527l.007 2.989a538 538 0 0 1-.04 6.232 550 550 0 0 0 0 9.353c-.015 20.507-2.432 40.178-17.248 55.613-6.59 6.14-13.723 9.691-22.348 12.188l-1.836.54c-7.176 1.869-14.347 1.845-21.726 1.835l-2.018-.002c-18.202-.068-33.113-3.45-47.057-15.857C118 186 118 186 118 184l-3-1c-9.03-11.053-10.602-25.205-10.533-38.944q-.011-2.154-.027-4.307c-.022-3.85-.02-7.7-.01-11.551.005-3.224-.002-6.448-.01-9.672q-.024-11.398.004-22.795c.017-7.835 0-15.67-.032-23.504a3882 3882 0 0 1-.025-20.235c.005-4.022.003-8.043-.018-12.064q-.026-5.655.012-11.31.008-2.076-.01-4.152c-.017-1.886.001-3.771.02-5.657l.003-3.199C105 13 105 13 107.316 11.16c3.484-1.505 6.638-1.554 10.364-1.488" fill="#EC703C"/><path d="M413.812 12.77c5.065.256 10.117.281 15.188.23v2h2v37c-3.418 1.14-6.035 1.113-9.637 1.098l-3.935-.01-4.116-.025q-2.074-.008-4.15-.014Q404.081 53.03 399 53v5h-2q.16 22.609.34 45.218.083 10.498.157 20.995.072 10.125.156 20.25.031 3.868.056 7.737.037 5.405.086 10.811l.017 3.254.03 2.97.02 2.584c.056 2.361.056 2.361 1.138 5.181.367 3.157.51 6.328.687 9.5l.182 2.629.143 2.527.14 2.307C400 196 400 196 398 199c-4.693 1.219-9.464 1.16-14.285 1.168l-2.36.01q-2.457.007-4.914.007c-2.5.002-4.998.02-7.498.04q-2.396.005-4.79.005l-2.252.022c-4.057-.018-7.302-.305-10.901-2.252-1.318-2.636-1.106-4.565-1.082-7.517l.021-3.553.04-3.917.028-4.109q.042-5.587.094-11.175.049-5.835.092-11.671.085-11.055.18-22.11.107-12.585.203-25.168.203-25.89.424-51.78c-.792.01-1.583.02-2.4.032-3.595.041-7.191.067-10.788.093-1.245.017-2.491.034-3.775.05l-3.642.02-3.349.032c-3.116-.232-5.276-.802-8.046-2.227-1.368-2.737-1.216-5.043-1.316-8.102l-.127-3.671-.12-3.852-.13-3.875q-.16-4.75-.307-9.5h2l1-11c4.563-1.825 6.772-2.267 11.505-2.335l3.94-.07 4.258-.044 4.44-.066q4.67-.068 9.34-.118c3.913-.043 7.824-.1 11.736-.161 16.227-.252 32.378-.27 48.593.564" fill="#FCBF2C"/><path d="M68.34 9.77h2.076q2.162.006 4.324.024c2.188.018 4.375.02 6.563.02 17.49.062 17.49.062 22.697 3.186v2h-2l.006 2.132q.066 25.756.098 51.513.014 12.456.047 24.912.03 10.865.037 21.73.003 5.745.023 11.49.02 5.425.015 10.85c.001 1.936.012 3.873.023 5.81C102.214 158.31 100.91 175.039 91 187h-2c-.26.6-.52 1.199-.79 1.816C84.174 196.098 74.518 199.626 67 202c-14.8 3.192-35.206 4.407-49-3-2.065-3.098-2.255-3.801-2.29-7.316l-.04-2.63-.006-2.831-.02-2.918q-.015-3.056-.015-6.11a857 857 0 0 0-.078-9.35q-.009-2.967-.012-5.935l-.043-2.825c.045-6.453.045-6.453 2.41-9.71C20 148 20 148 21.965 148.09c2.292 1.025 4.424 2.215 6.598 3.472C34.1 154.39 38.87 154.883 45 154c3.751-1.328 4.651-2.382 6.599-5.834 2.197-5.388 1.832-11.025 1.818-16.755l.026-3.801q.029-5.134.03-10.27c.006-3.587.03-7.175.05-10.762.04-6.789.063-13.578.082-20.367.033-12.17.091-24.339.154-36.508q.032-6.405.047-12.81c.008-3.274.023-6.548.036-9.822l.003-3.589.017-3.271.008-2.847C54 15 54 15 55 12c4.477-2.017 8.474-2.246 13.34-2.23" fill="#DC2E56"/><path d="M703 42c13.045-.116 25.984.11 39 1l1 2-2 1 1 1c.099 1.921.126 3.846.127 5.77l.009 3.799-.007 4.206.006 4.4q.005 5.99 0 11.98c-.003 4.171 0 8.341 0 12.512q.004 10.506-.005 21.013-.007 12.165.002 24.33.007 10.425.003 20.85-.003 6.236.001 12.47.004 5.861-.005 11.721l.002 4.314q.002 2.933-.006 5.865l-.001 3.323C742 196 742 196 741 197c-2.86.113-5.697.164-8.559.168l-2.604.01q-2.733.007-5.465.007c-2.794.002-5.588.02-8.382.04q-2.649.005-5.299.005l-2.544.022c-5.918-.023-5.918-.023-8.147-2.252-.26-1.977-.26-1.977-.275-4.436l-.029-2.798.003-3.055-.013-3.182q-.008-3.362-.002-6.724c.003-3.34-.02-6.68-.045-10.02-.034-11.986.633-23.581 2.294-35.453 1.123-8.15 1.4-15.984 1.192-24.207q-.064-3.714-.117-7.43l-.074-3.187C703 92 703 92 704 90l-2-1 .035-1.863.028-2.45.035-2.425c-.001-2.43-.001-2.43-1.098-5.262l.625-3.5L702 70l-1.46-1.234c-2.444-2.803-1.893-5.985-1.79-9.516l.016-2.094c.067-4.464.519-8.75 1.234-13.156h3z" fill="#3E87C3"/><path d="m783.48 9.98 3.193.022q8.331.055 16.661.13c5.735.05 11.469.076 17.203.097 4.421.02 8.841.058 13.262.1q3.174.027 6.348.032c2.944.007 5.887.04 8.83.077l2.65-.01c5.852.112 5.852.112 8.412 2.37 1.5 3.435 1.409 6.863 1.395 10.546l.015 2.442q.01 2.553-.003 5.104c-.008 2.601.02 5.2.052 7.801q.003 2.483-.002 4.965l.034 2.352c-.044 3.387-.28 5.606-2.14 8.475-3.166 2.01-5.385 2.06-9.124 2.126l-3.926.098q-2.045.023-4.09.043-2.069.042-4.137.09-5.055.105-10.113.16c-.74 3.98-1.129 7.75-1.145 11.795l-.02 3.433-.009 3.722-.03 6.008q-.015 3.216-.026 6.432c-.015 4.47-.04 8.94-.065 13.411a24095 24095 0 0 0-.182 38.127q-.042 10.54-.106 21.077a3836 3836 0 0 0-.056 13.34c-.012 3.408-.036 6.815-.058 10.222l-.002 3.747-.03 3.399-.012 2.965C826 197 826 197 824 199c-1.853.274-1.853.274-4.127.306l-2.579.049-2.79.016c-.945.01-1.89.018-2.862.027q-3 .022-6 .028a730 730 0 0 0-9.19.111q-2.912.015-5.823.022l-2.784.059-2.589-.019-2.276.016c-1.98-.615-1.98-.615-3.581-2.79-1.57-3.17-1.77-5.112-1.76-8.627l-.012-3.514.032-3.828v-4.051c-.002-3.659.016-7.318.037-10.976.019-3.827.02-7.653.024-11.48.01-7.242.034-14.484.064-21.727.033-8.246.05-16.493.065-24.74.031-16.96.084-33.921.151-50.882l-2.69-.044a1502 1502 0 0 1-9.908-.218 585 585 0 0 0-4.283-.084c-2.056-.034-4.11-.086-6.166-.142l-3.745-.08C747.846 55.98 746.44 55.29 744 53l2-4 1.58 1.962c3.17 2.67 5.046 2.575 9.154 2.647l3.926.098q2.045.023 4.09.043 2.069.042 4.137.09 5.055.105 10.113.16v2h2l1 141 41-1 .076-12.174q.125-19.912.263-39.826.084-12.072.158-24.146.065-10.526.14-21.05.04-5.572.072-11.142.036-6.226.086-12.453l.017-3.71c.051-5.922.29-11.642 1.188-17.499l2.798-.076q5.141-.143 10.282-.296 2.224-.065 4.45-.125 3.197-.088 6.396-.187l3.888-.11c3.207-.072 3.207-.072 6.186-1.206l-1-2-1-36-108-1-1 3-2-4c5.584-5.584 29.813-2.077 37.48-2.02" fill="#2F5885"/><path d="m333.326 9.596 3.146-.02c3.427-.02 6.854-.015 10.282-.01l7.147-.015q7.485-.014 14.972.003c6.402.011 12.803-.009 19.204-.038 4.918-.018 9.837-.018 14.755-.012q3.54 0 7.082-.019c3.297-.014 6.592-.004 9.889.013l2.965-.029c6.554.072 6.554.072 9.84 2.299 1.512 2.425 1.881 3.621 1.846 6.45v2.486l-.063 2.655-.018 2.74a874 874 0 0 1-.123 8.651q-.03 2.936-.055 5.871c-.044 4.794-.113 9.586-.195 14.379-10.77 3.59-22.647 2-34 2v133h-1l-.184-2.738-.254-3.575c-.08-1.171-.162-2.343-.246-3.55-.203-3.163-.203-3.163-1.316-6.137a83 83 0 0 1-.12-4.765l-.004-2.97.01-3.254v-3.43c0-3.75.009-7.5.016-11.249l.005-7.79q.005-9.21.021-18.422.015-10.488.022-20.975.016-21.573.05-43.145h2v-5l32-1V15h-2v-2l-1.816.254c-5.792.65-11.328.752-17.135.406-16.845-.998-33.682-.565-50.541-.265q-6.196.106-12.393.2-12.058.194-24.115.405l-1 2-2-1v17h-1v-6h-2c.033-2.105.102-4.21.187-6.313l.106-3.55C318 13 318 13 319.899 11.329c4.484-1.922 8.596-1.755 13.427-1.733" fill="#E8B54C"/><path d="M702 13a61 61 0 0 1 7.676-.363l2.31-.002q2.422.004 4.844.029c2.462.023 4.924.02 7.387.014q2.355.008 4.709.021l2.223-.003c4.05.056 7.204.51 10.851 2.304a1188 1188 0 0 1 .125 9.813c.017.928.034 1.857.05 2.814l.02 2.705.032 2.491C742 35 742 35 740 38c-6.241 0-12.479-.122-18.718-.262a714 714 0 0 0-4.824-.084 712 712 0 0 1-6.966-.142l-2.184-.02c-2.023-.06-2.023-.06-5.308-.492-2.033-3.05-2.255-3.69-2.266-7.125l-.007-2.39.023-2.485-.023-2.484.007-2.391.007-2.18C700 16 700 16 702 13" fill="#3E89C6"/><path d="m702 42 1 2-2 2c-1.237 4.298-1.218 8.684-1.25 13.125l-.062 2.168c-.13 4.07-.13 4.07 1.851 7.445L703 70c.04 1.973.04 1.973-.375 4.063-.98 3.71-.98 3.71.375 5.937.07 2.243-.002 4.468-.062 6.71-.03 2.231-.03 2.231.553 4.079 1.118 4.86.738 9.998.759 14.961l.063 3.383c.034 7.877-.728 15.374-1.817 23.164-1.792 13.095-1.837 26.009-1.683 39.203q.022 3.45.04 6.898.05 8.302.147 16.602c12.653 4.218 26.663 1 40 1l1-149-2-1 4-1 3 4-.986 1.632c-1.248 2.916-1.252 5.087-1.234 8.258l.004 3.65.037 3.993q.008 2.108.013 4.214.015 4.534.046 9.067c.032 4.777.048 9.555.06 14.332.034 11.864.087 23.728.15 35.592.048 9.223.09 18.447.11 27.67q.019 7.128.074 14.254c.019 2.952.026 5.904.029 8.856q.006 2.057.028 4.114c.019 1.868.018 3.737.016 5.605l.017 3.172C745 196 745 196 743.599 197.836c-2.039 1.484-3.239 1.544-5.747 1.552l-2.519.029-2.708-.019-2.79.01q-2.92.002-5.84-.017c-2.984-.016-5.965 0-8.948.02q-2.835-.004-5.672-.013l-2.708.019-2.519-.029-2.213-.007c-2.561-.504-3.424-1.264-4.935-3.381-.374-2.171-.374-2.171-.372-4.724l-.02-2.906.029-3.143-.002-3.257q.004-3.422.029-6.845c.023-3.452.02-6.903.014-10.355.026-19.912.026-19.912 1.798-29.046 1.285-6.68 1.683-13.164 1.692-19.947l.01-2.615q.007-2.73.007-5.459c.002-2.734.02-5.467.04-8.201.177-16.975.177-16.975-3.225-33.502-.227-3.33-.185-6.664-.187-10l-.038-2.773-.005-2.664-.013-2.434C697 46 697 46 699 43z" fill="#3C729F"/><path d="m114.645 9.707 2.548.03 2.62.075 2.677.042c2.17.035 4.34.089 6.51.146l-1 3h-16l-1 3-2 1c-1.08 26.491-1.188 52.974-1.185 79.484 0 5.963-.014 11.926-.031 17.889q-.015 6.963-.013 13.926a2203 2203 0 0 1-.013 6.603c-.01 3.056-.007 6.111 0 9.167-.007.891-.012 1.783-.018 2.702.027 5.397.598 10.076 2.26 15.229l2 1-1 4 2 1c2 3 2 3 2.875 6.313 2.005 6.573 5.952 10.74 10.875 15.312C128 191 128 191 128 193c-3.957-1.674-6.845-4.131-10-7v-2l-3-1c-9.03-11.053-10.602-25.205-10.533-38.944q-.011-2.154-.027-4.307c-.022-3.85-.02-7.7-.01-11.551.005-3.224-.002-6.448-.01-9.672q-.024-11.398.004-22.795c.017-7.835 0-15.67-.032-23.504a3882 3882 0 0 1-.025-20.235c.005-4.022.003-8.043-.018-12.064q-.026-5.655.012-11.31.008-2.076-.01-4.152c-.017-1.886.001-3.771.02-5.657l.003-3.199C105 13 105 13 107.394 11.158c2.684-1.193 4.34-1.51 7.25-1.451" fill="#C85644"/><path d="M197 10q6.54-.111 13.08-.165 2.224-.022 4.45-.061a568 568 0 0 1 6.396-.067l3.888-.048C228 10 228 10 229.88 11.393c3.582 5.138 2.78 11.618 2.12 17.607-1.23 3.18-2.755 6.009-4.398 8.992-7.717 14.493-8.478 34.843-3.915 50.508.978 2.672 2.095 5.124 3.52 7.587 3.6 6.463 4.503 11.522 4.352 18.854l-.007 3.054q-.015 3.172-.065 6.346c-.05 3.217-.061 6.432-.067 9.65q-.02 3.1-.049 6.2l-.016 2.88c-.104 5.912-.891 11.197-2.355 16.929l-2-4 1-1c.093-1.535.117-3.074.114-4.612v-2.972l-.016-3.232-.005-3.292c-.005-3.485-.018-6.97-.03-10.454l-.014-7.069q-.017-8.685-.049-17.369l-2-1v2h-2l.563-2.312c.665-2.778.665-2.778-.563-5.688l-.375-2.125c-.53-2.434-1.214-4.546-2.062-6.875-2.02-5.85-2.76-11.884-3.563-18h-2c-1.117-9.5-1.59-15.87 4-24 .741-2.31 1.402-4.648 2-7a489 489 0 0 1 1.563-4.437c1.045-3.048 1.678-5.858 2-9.063L226 24l2-1v-6l-2 1-2-2v-3l-3.621.07c-15.68.211-15.68.211-23.379-2.07z" fill="#DA8542"/><path d="M130 10c14.781-.185 14.781-.185 21 1v2h2l.007 2.06q.089 24.827.229 49.652.07 12.006.11 24.012.034 10.465.103 20.93.037 5.54.049 11.08c.007 4.126.037 8.25.07 12.376l-.005 3.703c.076 6.805.385 11.796 5.125 17.062L160 155l-1 2-2-1v-2h-2l-1-4h-3c-.812-3.57-1.133-6.88-1.158-10.537l-.03-3.335-.017-3.63-.03-3.844q-.04-5.205-.068-10.412c-.022-3.63-.05-7.26-.076-10.89q-.074-10.305-.138-20.612-.076-11.735-.16-23.47-.17-24.135-.323-48.27c-2.236-1.118-3.649-1.194-6.133-1.316l-2.441-.127-2.551-.12-2.574-.13Q132.15 13.148 129 13z" fill="#CD5D44"/><path d="M598 14v3c-2.062 1.375-2.062 1.375-5 3a281 281 0 0 0-5.45 4.012C586 25 586 25 584 25l-.812 2.438L582 30l-3 1-1 3h-2l-.32 1.77c-.775 2.543-1.849 3.893-3.555 5.917-3.266 4.196-4.704 8.246-6.125 13.313l-1.125 3.063C563.786 61.717 563.392 65.207 563 69h-2l.208 1.86c.838 8.214 1.01 16.404 1.108 24.652l.063 4.392q.082 5.722.153 11.446.077 5.864.161 11.726.16 11.462.307 22.924l2 1q.079 2.687.125 5.375l.07 3.023C565 158 565 158 563 160c-3.409-11.43-4.59-21.87-4.496-33.766q0-2.478-.005-4.957 0-5.147.034-10.296a1389 1389 0 0 0 .013-13.097c-.007-3.4.001-6.802.014-10.203q.007-2.413 0-4.826c-.012-9.325.596-17.884 3.44-26.855l1.14-3.629C567.839 39.948 581.923 14 598 14" fill="#4C9EA1"/><path d="M68.34 9.77h2.076q2.162.006 4.324.024c2.188.018 4.375.02 6.563.02 17.49.062 17.49.062 22.697 3.186v2h-2v139h-1c-.952-7.678-1.137-15.246-1.114-22.977v-3.817q.001-5.134.013-10.269.007-5.383.008-10.766.005-10.173.021-20.346.015-11.59.022-23.18.016-23.822.05-47.645c-3.928-1.31-7.726-1.235-11.824-1.316l-2.61-.063q-4.126-.097-8.254-.184l-5.595-.13Q64.858 13.147 58 13c-1.469 4.407-1.371 8.747-1.535 13.371l-.127 3.497c-.405 12.74-.49 25.484-.584 38.23l-.026 3.406q-.118 15.911-.205 31.822-.048 8.78-.12 17.56-.024 3.326-.037 6.653c-.012 3.069-.036 6.138-.063 9.207l-.002 2.769c-.073 6.257-.073 6.257-2.301 8.485q.16-25.935.34-51.868.083-12.041.157-24.082.065-10.492.14-20.986.04-5.557.072-11.116.036-6.2.086-12.398l.017-3.736.03-3.404.02-2.964C54 15 54 15 55 12c4.477-2.017 8.474-2.246 13.34-2.23" fill="#A53756"/><path d="m318 35 2 1c1.55 4.806 1.087 10.008 1 15 2.78.927 4.472 1.129 7.344 1.133l2.527.004 2.629-.012 2.629.012 2.527-.004 2.307-.004c2.24-.055 2.24-.055 5.037-1.129 3.433 1.144 4.735 2.209 7 5 .492 2.491.492 2.491.481 5.34l.017 3.28-.044 3.584.002 3.785c-.002 3.422-.022 6.842-.05 10.263-.025 3.577-.028 7.154-.033 10.73-.012 6.772-.045 13.544-.085 20.315-.045 7.71-.067 15.42-.087 23.13-.042 15.857-.112 31.715-.201 47.573l-2 1V57h-27c-5-2-5-2-6-4a61 61 0 0 1-.098-4.133l.01-2.441.026-2.551.013-2.574q.02-3.15.049-6.301" fill="#E7B64A"/><path d="m783.48 9.98 3.193.022q8.331.055 16.661.13c5.735.05 11.469.076 17.203.097 4.421.02 8.841.058 13.262.1q3.174.027 6.348.032c2.944.007 5.887.04 8.83.077l2.65-.01c5.852.112 5.852.112 8.412 2.37 1.5 3.435 1.409 6.863 1.395 10.546l.015 2.442q.01 2.553-.003 5.104c-.008 2.601.02 5.2.052 7.801q.003 2.483-.002 4.965l.034 2.352c-.044 3.396-.277 5.605-2.154 8.475-3.102 1.98-5.222 2.06-8.892 2.126l-3.789.098-3.945.043-3.992.09q-4.879.105-9.758.16v-2l2.216-.06c3.324-.096 6.648-.205 9.971-.315 1.151-.03 2.301-.062 3.487-.094l3.369-.117 3.094-.095C854.08 53.99 856.32 53.227 859 52l-1-2-1-36-108-1-1 3-2-4c5.584-5.584 29.813-2.077 37.48-2.02" fill="#345C7D"/><path d="M100 17h1q.142 28.19.207 56.383.028 13.091.095 26.183.06 11.419.074 22.838c.006 4.026.018 8.051.047 12.077q.039 5.7.03 11.4c.001 2.038.022 4.075.045 6.112C101.44 165.053 98.454 176.216 91 187l-3-1 3-6h2l.373-1.546a153 153 0 0 1 1.58-5.663c4.017-14.576 3.642-29.392 3.622-44.384-.001-3.81.022-7.62.042-11.43.035-7.189.052-14.378.06-21.567.013-10.578.051-21.157.094-31.735l.01-2.354.019-4.644q.027-6.787.034-13.576.005-3.192.014-6.386.01-3.892.009-7.784l.012-3.452.004-3.005C99 20 99 20 100 17" fill="#C82E51"/><path d="m192 11-7 3 .021 2.012q.255 24.304.474 48.607.104 11.754.229 23.506.11 10.25.195 20.503.044 5.42.107 10.843c.048 4.047.08 8.094.11 12.141l.05 3.582c.096 19.146.096 19.146-3.76 23.64L181 160l-8-4 2.813-1.5c3.874-2.64 5.142-6.041 6.187-10.5.42-4.304.417-8.58.4-12.902l.022-3.866q.021-4.138.02-8.277c-.003-4.362.017-8.723.04-13.085.04-8.462.059-16.923.076-25.385q.031-16.19.107-32.379.03-6.507.03-13.014.005-3.066.018-6.133.015-3.742.008-7.486l.02-3.313.006-2.89C183 13 183 13 185 11c4.516-1.242 4.516-1.242 7 0" fill="#C47A4A"/><path d="M533 29c6.093.825 9.482 6.42 13 11 7.399 11.645 11.12 23.081 11.13 36.897l.005 1.97q.004 3.184-.002 6.367l.003 4.455q.002 4.65-.006 9.3-.006 5.96.004 11.92.005 4.592 0 9.183l.002 4.397q.003 3.065-.007 6.131l-.002 3.523C557 137 557 137 556 140l-2-1-.025-2.646q-.116-12.421-.263-24.843-.076-6.384-.134-12.769-.057-6.175-.136-12.351-.028-2.342-.045-4.682c.902-15.661.902-15.661-3.887-29.394L548 51a102 102 0 0 1-2.562-5.625c-1.392-3.937-1.392-3.937-4.438-6.375v-2l-1.75-.687c-2.83-1.652-4.352-3.67-6.25-6.313z" fill="#4D9668"/><path d="M19 148c3.713.577 6.38 1.634 9.625 3.5 5.395 2.82 10.35 3.374 16.375 3.5l-1 2q-2.656.039-5.312.063l-2.989.035C33 157 33 157 30 156v-2l-2.375.125C25 154 25 154 23 152h-3l-1 44 7 1v2l3.219.184c4.262.248 8.522.526 12.781.816 1.373.09 1.373.09 2.773.184 2.102.191 2.102.191 5.227.816l2 3c-10.811.458-24.248.237-34-5-2.069-3.103-2.253-3.796-2.275-7.316l-.029-2.63.003-2.831-.013-2.918a1235 1235 0 0 1-.002-6.11c.003-3.117-.02-6.233-.045-9.35q-.004-2.967-.002-5.935l-.028-2.825c.046-6.492.046-6.492 1.914-9.704z" fill="#B32D50"/><path d="m209 185 7 1c-7.146 9.925-18.619 14.112-30.3 16.599-5.723.85-11.488.784-17.262.776h-2.016c-13.939-.045-26.568-1.34-38.422-9.375 1.938-.562 1.938-.562 4-1l1 1q3.493.553 7 1l1-2 1 3a50.6 50.6 0 0 0 6.938 2.188l2.149.523c11.43 2.532 23.22 2.084 34.628-.371C188 198 188 198 191 199l.727-1.926C193 195 193 195 195.023 194.207l2.352-.394 2.336-.418L202 193c1.336-.322 2.67-.651 4-1v-2l2-1c.652-2.025.652-2.025 1-4" fill="#C97B4C"/><path d="M56 16h1q.07 24.852.104 49.705.014 11.54.047 23.08.03 10.06.037 20.12.003 5.325.023 10.65c.017 3.967.017 7.933.016 11.9l.022 3.551c-.015 5.69-.117 10.676-2.249 15.994-2.375 1.813-2.375 1.813-5 3l-2.312 1.188L46 156v-2a263 263 0 0 1 5-4l1-2h2l.031-3.805q.149-17.933.308-35.867.083-9.215.158-18.43.073-8.93.156-17.857.03-3.37.056-6.74C54.837 48.851 55.312 32.433 56 16" fill="#C12A52"/><path d="M399 62h1v128h-1c-.09-1.355-.09-1.355-.184-2.738l-.253-3.575-.247-3.55c-.203-3.163-.203-3.163-1.316-6.137a61 61 0 0 1-.13-4.03l-.009-2.454.006-2.66-.003-2.789q0-2.941.006-5.884.006-4.377-.007-8.755c-.004-10.376.224-20.708.747-31.07.542-10.906.74-21.817.952-32.733l.131-6.348Q398.85 69.638 399 62" fill="#DCB03F"/><path d="M220 52h2l-.063 2.456q-.103 4.61-.157 9.22c-.03 1.958-.08 3.915-.132 5.873-.096 9.469.908 18.27 5.592 26.676 3.561 6.443 4.47 11.403 4.319 18.716l-.007 3.054q-.015 3.172-.065 6.346c-.05 3.217-.061 6.432-.067 9.65q-.02 3.1-.049 6.2l-.016 2.88c-.104 5.912-.891 11.197-2.355 16.929l-2-4 1-1c.093-1.535.117-3.074.114-4.612v-2.972l-.016-3.232-.005-3.292c-.005-3.485-.018-6.97-.03-10.454l-.014-7.069q-.017-8.685-.049-17.369l-2-1v2h-2l.563-2.312c.665-2.778.665-2.778-.563-5.688l-.375-2.125c-.707-3.25-1.77-6.276-2.906-9.398-1.763-6.075-1.876-12.147-1.844-18.415l-.012-2.302c.009-5.004.427-9.807 1.137-14.76" fill="#C9824F"/><path d="M330 110c7.258 6.617 8.63 17.184 9.223 26.508.418 17.409-3.521 33.293-15.07 46.625-4.501 4.706-9.425 8.73-15.153 11.867h-2v-2a157 157 0 0 1 5-3l2.688-2.187C317 186 317 186 319 186v-3c1.65-1.026 3.32-2.023 5-3 2.651-2.84 3.468-5.172 4-9h2l.438-1.937C331 167 331 167 332 166c.04-2 .043-4 0-6h3c.03-4.25.047-8.5.063-12.75l.025-3.598c.637-15.226.637-15.226-5.088-28.652-.25-2.875-.25-2.875 0-5" fill="#D59957"/><path d="M252 118h8v2l2.813-.187c3.187.187 3.187.187 4.812 1.562L269 123c2.1 1.176 2.1 1.176 4 2v2h5v2h4v2l2.375.813C287 133 287 133 289 136c1.372 12.846 1.372 12.846-1.875 17.875L285 156h-2l-1 3c-6.75 1.125-6.75 1.125-9 0a75 75 0 0 0-3.992-.5l-2.387-.25-2.496-.25q-2.434-.245-4.867-.5l-2.183-.219c-2.08-.282-4.05-.734-6.075-1.281l1-4 2.527.875c10.177 3.357 18.51 4.986 28.473.125 2.068-1.614 2.873-2.546 3.582-5.086l.23-2.289.27-2.273c-.101-2.9-.807-4.746-2.082-7.352-5.463-4.96-12.597-7.835-19.312-10.687q-2.623-1.124-5.239-2.262l-2.302-.98c-2.275-1.135-4.162-2.49-6.147-4.071" fill="#D99758"/><path d="M149 16h1q.231 25.712.443 51.425.098 11.939.205 23.877.095 10.404.177 20.81.043 5.51.096 11.02.057 6.148.1 12.297l.04 3.696.021 3.383.025 2.938c-.098 2.344-.438 4.314-1.107 6.554l-3-1c-.625-3.375-.625-3.375-1-7l2-2c.295-2.15.295-2.15.234-4.666l.004-2.982-.027-3.284-.004-3.45c-.006-3.781-.027-7.563-.047-11.345l-.016-7.87q-.018-9.325-.057-18.65-.069-17.657-.104-35.314a5957 5957 0 0 0-.045-11.593l-.02-7.138-.02-3.246c-.009-5.588.265-10.935 1.102-16.462" fill="#F06042"/><path d="M503 64c1.867.184 1.867.184 4 1 1.195 2.223 1.195 2.223 2.125 5.063l.996 3.039L511 76l.66 2.086c2.694 9.458 2.449 19.476 2.527 29.227l.04 2.857c.007 5.377-.52 9.735-2.227 14.83a236 236 0 0 0-1 7c-.52 3.864-.81 5.715-3 9h-2l-1 3-1-2c.707-1.777.707-1.777 1.813-3.937 4.434-9.6 4.535-19.773 4.503-30.168-.003-2.128.02-4.255.045-6.383.052-11.13-.908-22.17-5.361-32.512z" fill="#54935B"/><path d="M742 47h1l.013 2.272q.155 27.34.326 54.68.085 13.223.158 26.444.065 11.52.14 23.043.04 6.103.072 12.205.03 5.742.071 11.482.015 2.11.023 4.22.015 2.876.039 5.75l.02 3.255c.026 2.756.026 2.756 1.138 5.649-2 2-2 2-5.807 2.227q-2.46-.001-4.92-.032l-2.614-.008c-2.762-.011-5.523-.037-8.284-.062q-2.805-.016-5.61-.027-6.882-.035-13.765-.098v-1l37-1z" fill="#2D6CA5"/><path d="M666 193a1134 1134 0 0 1-7.5 3.875l-2.11 1.105c-15.493 7.89-35.79 7.915-52.206 2.84-8.527-3.163-8.527-3.163-11.184-5.82l3.375.5c4.52.623 6.458.254 10.625-1.5l1.375 2.438c1.372 2.65 1.372 2.65 3.625 3.562 4.16.273 8.331.232 12.5.25l3.477.063c6.453.029 11.923-.484 18.017-2.666C648 197 648 197 651 197c3.167-1.267 6.224-2.557 9.188-4.25 2.316-.959 3.457-.433 5.812.25" fill="#3AA1AC"/><path d="M431 53c-3.763 1.723-6.831 2.287-10.957 2.414l-3.37.117-3.486.094-3.544.117q-4.321.141-8.643.258c-1.075 5.31-1.2 10.48-1.281 15.875l-.056 2.91A4188 4188 0 0 0 399.5 84c-.266 15.35-.723 30.668-1.5 46h-1V58h2v-5q6.112-.252 12.225-.482 2.08-.08 4.159-.166 2.99-.122 5.98-.23l3.633-.144C428 52 428 52 431 53" fill="#EBB432"/><path d="M300 8c6.106.283 12.233.837 17 5 .562 1.877.562 1.877.722 4.059.06.803.12 1.606.18 2.433.157 4.03.149 8.036.047 12.067l-.057 2.637q-.062 2.731-.134 5.463c-.07 2.795-.125 5.59-.178 8.386l-.13 5.326-.045 2.535c-.176 5.865-.176 5.865-2.405 8.094-3.125.125-3.125.125-6 0l-1-3h3l1-3 2-1q.075-8.704.11-17.407.015-2.963.04-5.925c.025-2.835.036-5.67.045-8.504l.032-2.686c0-2.16-.104-4.32-.227-6.478-1.761-2.183-1.761-2.183-3.945-2.195L304 14v-2l-4-1z" fill="#E09741"/><path d="M397 174c2.746 4.119 2.527 7.65 2.75 12.5l.168 2.629.129 2.527.12 2.307C400 196 400 196 398 199c-4.693 1.219-9.464 1.16-14.285 1.168l-2.36.01q-2.457.007-4.914.007c-2.5.002-4.998.02-7.498.04q-2.396.005-4.79.005l-2.252.022c-4.057-.018-7.302-.305-10.901-2.252-1.262-2.525-1.099-4.312-1.062-7.125l.027-2.758L350 186h1l.375 3.438L352 193l2 1v3h29v-1l1.828.07 2.422.055 2.39.07c2.75-.08 2.75-.08 6.36-2.195z" fill="#F6BE3D"/><path d="m446.508 9.902 2.547.005c2.69.005 5.38.018 8.07.03q2.732.009 5.465.014 6.705.017 13.41.049l-4 1v2l-23 1 10 1v1l-1.912-.016q-4.263-.029-8.526-.046l-3.01-.026-2.86-.01-2.65-.016c-2.036-.114-2.036-.114-3.042 1.114a81 81 0 0 0-.316 4.691l-.127 2.862-.12 3.01-.13 3.021q-.16 3.708-.307 7.416h-1c-.03-3.75-.047-7.5-.062-11.25l-.026-3.223-.01-3.105-.016-2.857c.106-2.375.311-4.33 1.114-6.565 3.279-1.64 6.906-1.12 10.508-1.098" fill="#55A152"/><path d="M229 195c6.519-.376 6.519-.376 8.84 1.438 8.38 6.062 24.458 3.772 34.473 3.812l2.123.016c2.017.012 4.035.006 6.052 0l3.58-.007c3.122-.04 3.122-.04 5.932-2.259 2.48-.414 2.48-.414 5.188-.625l2.73-.227L300 197v-2h7c-10.328 9.43-29.92 9.387-43 9l-3.059-.086c-11.228-.577-21.687-3.324-31.941-7.914z" fill="#DF9C51"/><path d="M560 80h2l1 66 2 1q.079 2.687.125 5.375l.07 3.023C565 158 565 158 563 160c-3.157-10.727-4.535-20.297-4.172-31.562q.045-2.119.085-4.237c.073-3.656.171-7.312.276-10.968.103-3.754.18-7.51.26-11.264Q559.691 90.984 560 80" fill="#41AFB7"/><path d="m236 141 5 2v2l1.625.75c2.94 1.547 5.633 3.38 8.375 5.25-3.956 1.217-8.206 1.897-12 0l-.812 2.938L237 157l-3 1-.148 2.082-.227 2.73c-.07.894-.14 1.787-.21 2.708C233 168 233 168 231 171h-2q.465-2.907.938-5.812l.527-3.27C231 159 231 159 232 156c.228-2.768.38-5.535.523-8.309.531-2.998 1.482-4.435 3.477-6.691" fill="#F29E49"/><path d="M94 11c3.947-.18 6.598-.094 10 2v2h-2v139h-1c-.952-7.678-1.137-15.246-1.114-22.977v-3.817q.001-5.134.013-10.269.007-5.383.008-10.766.005-10.173.021-20.346.015-11.59.022-23.18.016-23.822.05-47.645l-3-1v-2z" fill="#A84152"/><path d="m769.688 9.875 2.01-.014c3.73.011 7.378.232 11.088.628 7.305.678 14.614.74 21.944.827l4.46.063q5.812.082 11.624.153 5.953.077 11.907.161 11.64.16 23.279.307v1H749l-1 3-2-4c3.896-3.896 18-2.104 23.688-2.125" fill="#2E5594"/><path d="M197 10q6.54-.111 13.08-.165 2.224-.022 4.45-.061a568 568 0 0 1 6.396-.067l3.888-.048C228 10 228 10 229.88 11.393c2.422 3.475 2.317 6.146 2.37 10.357l.078 3.672c-.353 3.853-1.394 6.26-3.328 9.578-1.206-3.619-1.108-6.925-1.062-10.687l.013-2.127q.02-2.594.049-5.186l-2 1-2-2v-3l-3.621.07c-15.68.211-15.68.211-23.379-2.07z" fill="#C87846"/><path d="M431 11c3 3 3 3 3.36 4.917l-.02 2.187v2.487l-.047 2.67-.013 2.746c-.017 2.893-.054 5.787-.092 8.68q-.024 2.943-.042 5.885Q434.095 47.787 434 55c-4.402 1.685-8.008 2.238-12.71 2.195l-3.77-.02-3.895-.05-3.965-.027q-4.83-.036-9.66-.098l1-2 2.216-.06c3.324-.096 6.648-.205 9.971-.315 1.151-.03 2.301-.062 3.487-.094l3.369-.117 3.094-.095c3.31-.24 3.31-.24 7.863-2.319z" fill="#CFC05D"/><path d="M649 123h1c.612 10.602.34 19.462-5 29l-3 2-1 3c-4.835 3.191-8.805 3.384-14.375 3.188l-2.23-.042A429 429 0 0 1 619 160v-2l-2.937-.812L613 156l-1-3a90 90 0 0 0-4-4l3-1 1.137 1.46c.511.633 1.023 1.264 1.55 1.915.5.626.998 1.253 1.512 1.898 3.58 3.433 7.413 4.019 12.239 4.04 4.612-.118 7.792-.44 11.562-3.313 7.35-8.972 8.65-19.837 10-31" fill="#349EA9"/><path d="m200 11 3.5.563L206 12v1c-1.932.09-1.932.09-3.902.184l-5.036.254-2.576.119-2.45.127-2.27.11c-1.79.024-1.79.024-2.766 1.206a60 60 0 0 0-.158 4.144l-.03 2.707-.017 2.993-.03 3.133a5024 5024 0 0 0-.081 10.308l-.063 7.126q-.083 9.397-.153 18.795-.077 9.582-.161 19.163-.162 18.816-.307 37.631h-1q-.266-20.874-.495-41.75-.104-9.691-.229-19.384-.119-9.346-.214-18.693-.039-3.573-.088-7.146c-.046-3.326-.08-6.652-.11-9.978l-.05-3.01c-.005-.903-.01-1.806-.017-2.736l-.027-2.386C184 14 184 14 186 12c5.052-2.285 8.738-1.96 14-1" fill="#DD7933"/><path d="M778 170h2l.076 2.048c.116 3.067.239 6.135.361 9.202l.12 3.223.127 3.105.11 2.857c.157 2.834.157 2.834 1.206 6.565h43l-1 2q-9.103.184-18.207.275-3.098.037-6.195.102c-2.967.06-5.932.09-8.899.111l-2.803.078c-2.398.002-4.554-.053-6.896-.566-3.16-3.288-3.364-6.299-3.293-10.738l.03-3.233c.024-1.102.05-2.205.076-3.341l.04-3.4q.054-4.146.147-8.288" fill="#275074"/><path d="M658 13v1c-5.625.25-5.625.25-9-2-7.295-1.153-14.565-1.183-21.937-1.187l-3.381-.038c-8.238-.014-16.301.239-23.682 4.225l-2-2c19.486-8.708 40.373-8.082 60 0" fill="#4DA7AB"/><path d="M696 81h2c1.342 18.932 1.085 37.12-1 56h-1c-.804-3.5-1.102-6.662-1.022-10.25l.061-3.092.082-3.303.072-3.408q.116-5.38.245-10.76l.158-7.302Q695.79 89.942 696 81" fill="#37A6B3"/><path d="M695 138h1c-.492 18.997-9.885 35.833-23 49l-1-4c4.75-4 4.75-4 7-4l.25-2.187c.75-2.813.75-2.813 2.625-5.114 2.218-2.817 3.509-5.393 4.875-8.699l1.297-3.062c.927-2.857 1.15-4.963.953-7.938h2l.367-2.555.508-3.32.492-3.305C693 140 693 140 695 138" fill="#3697A1"/><path d="M646 68h3c1.729 6.054 2.364 11.659 2.563 17.938-.307 5.46-.307 5.46 1.437 10.062.252 3.221.185 6.457.188 9.688l.037 2.724c.01 4.938-.282 8.958-2.225 13.588h-1l-.06-2.899c-.077-3.62-.166-7.239-.257-10.858a1200 1200 0 0 1-.105-4.66C649.371 93.559 648.683 83.9 647 74z" fill="#549DAA"/><path d="M605 78c.981 3.162.96 5.54.563 8.813-1.503 15.978-.68 32.206.437 48.187-2-1-2-1-2.626-2.659-1.682-7.91-1.644-15.728-1.58-23.774a920 920 0 0 0 .02-7.174q.007-2.3.018-4.6l.003-2.147c.036-3.676.313-7.07 1.165-10.646l.5-2.75C604 79 604 79 605 78" fill="#3CA0AB"/><path d="m275 59-.36 1.977-.39 2.648-.422 2.602c.246 3.962 1.623 5.761 4.172 8.773 2.37 1.464 4.488 2.63 7 3.75l1.867.879A553 553 0 0 0 292 82a347 347 0 0 1 4 2c-2.576 2.116-4.625 3.673-8 4l-3-2h2v-2l-3 1-.75-1.937c-1.038-2.26-1.038-2.26-3.25-2.563-2-.5-2-.5-3.25-2.562L276 76h-2l-1-6h-2V60c2-1 2-1 4-1" fill="#DA9B57"/><path d="m323.884 11.876 2.114.01h2.217c2.43 0 4.86.009 7.289.016l5.04.005q6.645.006 13.292.024 6.776.014 13.553.02 13.305.016 26.611.049v1l-71 1-1 2-2-1v17h-1v-6h-2q.21-3.22.438-6.437c.08-1.195.162-2.39.246-3.622.507-4.714 1.827-4.056 6.2-4.065" fill="#F0BB2F"/><path d="M108 163h4l-1 4 2 1c2 3 2 3 2.875 6.313 2.005 6.573 5.952 10.74 10.875 15.312C128 191 128 191 128 193c-3.957-1.674-6.845-4.131-10-7v-2l-3-1c-1.57-2.18-1.57-2.18-3.125-4.875l-1.57-2.68c-2.294-4.3-2.396-7.628-2.305-12.445" fill="#D15643"/><path d="m270 9-1 2h-2v2c-4.12 1.292-7.668 2.263-12 2l1 3-4-1v3h-2v2l-6 1v3l-2.812 1.375C237.96 28.942 237.96 28.942 235 31c4.97-10.916 17.066-17.117 27.71-21.371 2.52-.692 4.69-.744 7.29-.629" fill="#D99A58"/><path d="M86 187h3c-3.315 7.632-11.313 11.035-18.68 13.965C64.658 202.73 58.886 203.417 53 204l-2-3c1.05-.182 2.101-.364 3.184-.55C68.21 198.015 68.21 198.015 81 192h2v-2h2z" fill="#BE294A"/><path d="M684 37c9.634 11.007 13.74 28.675 13 43h-2l-.402-2.23-.535-2.957-.528-2.918q-.509-2.763-1.101-5.508C692 64 692 64 692 60l-2-1c-.527-1.785-.527-1.785-.937-4.062-.784-3.912-1.933-7.44-3.399-11.141-.823-2.228-1.298-4.453-1.664-6.797" fill="#38A0AF"/><path d="M702 90h2c.456 37.037.456 37.037-2 48l-2 2c-.14-10.715.267-21.312 1-32h2z" fill="#3377A7"/><path d="M533 29c6.093.825 9.482 6.42 13 11 5.857 9.218 10.725 18.877 10 30l-2 1-.55-3.613-.763-4.7-.357-2.38-.38-2.295-.334-2.11c-.747-2.305-1.86-3.27-3.616-4.902a102 102 0 0 1-2.562-5.625c-1.392-3.937-1.392-3.937-4.438-6.375v-2l-1.75-.687c-2.83-1.652-4.352-3.67-6.25-6.313z" fill="#558F5E"/><path d="m706.688 10.813 3.574.082L713 11v1l-2.371.367-3.067.508-3.058.492L702 14c-1.679 3.357-1.142 7.124-1.125 10.813l-.012 2.447c.007 4.044.129 7.794 1.137 11.74-3.875-1.75-3.875-1.75-5-4-.266-3.473-.232-6.955-.25-10.437l-.062-2.932-.016-2.815-.028-2.58c.923-5.794 4.99-5.574 10.043-5.424" fill="#4176A0"/><path d="m297 49 3 1v3a749 749 0 0 0 6 4c1.375 2.25 1.375 2.25 2 4-2.75-1.083-5.296-2.167-7.875-3.625-5.856-2.534-12.91-2.059-19.125-1.375-3.367 1.403-3.367 1.403-6 3l2-5 6.152-.586L285 53l1-2h10z" fill="#E99B44"/><path d="M789 11q13.417-.141 26.834-.207 6.23-.03 12.46-.095 6.01-.063 12.02-.078 2.295-.01 4.59-.043c2.141-.029 4.28-.033 6.421-.031l3.695-.027C858 11 858 11 859.896 12.885c1.303 2.495 1.45 4.077 1.397 6.88l-.03 2.696c-.024.92-.05 1.84-.076 2.789l-.04 2.836Q861.092 31.544 861 35h-1V16h-2l-2-3c-2.908-.48-2.908-.48-6.377-.432l-1.982-.031c-2.164-.03-4.328-.04-6.493-.049l-4.497-.054c-3.95-.048-7.898-.077-11.847-.104-4.029-.03-8.057-.076-12.085-.121Q800.859 12.082 789 12z" fill="#445C84"/><path d="M318 35h1l1 17c2.652 1.326 4.922 1.32 7.883 1.535l3.535.264 3.707.264 3.73.275q4.572.336 9.145.662v2c-3.896.058-7.791.094-11.687.125l-3.342.05-3.233.02-2.967.032c-2.978-.244-5.11-.883-7.771-2.227-1.148-2.297-1.116-3.583-1.098-6.133l.01-2.441.026-2.551.013-2.574q.02-3.15.049-6.301" fill="#DAB45D"/><path d="M397 174c2.746 4.119 2.527 7.65 2.75 12.5l.168 2.629.129 2.527.12 2.307C400 196 400 196 398 199c-4.591 1.263-9.424 1.329-14 0l-1-3 1.828.07 2.422.055 2.39.07c2.75-.08 2.75-.08 6.36-2.195z" fill="#E9B83A"/><path d="M100 154h1c.84 12.184-3.122 23.05-10 33l-3-1 3-6h2c.703-2.767 1.355-5.54 1.973-8.328l.537-2.422.552-2.5L98 158h2z" fill="#B5364F"/><path d="M399 135h1v55h-1c-.09-1.338-.09-1.338-.184-2.703l-.253-3.547-.247-3.516c-.196-3.027-.196-3.027-.841-5.05-.62-2.847-.498-5.438-.39-8.348l.134-3.652.156-3.809.133-3.738c.264-6.912.688-13.766 1.492-20.637" fill="#D4A741"/><path d="M227 160c1.674 5.102-.014 9.185-2 14-5.722 10.361-5.722 10.361-9 12l-1-3h3a85 85 0 0 0-2-7h4v-7l1.89-.246c2.26-.548 2.26-.548 3.157-2.602l.703-2.214.734-2.223z" fill="#D98347"/><path d="M429 10c2.883 2.446 2.986 2.837 3.34 6.92q-.001 2.453-.047 4.904l-.013 2.61c-.017 2.752-.054 5.502-.092 8.253q-.024 2.799-.042 5.596A2197 2197 0 0 1 432 52h-1V15h-2v-2l-1.887.254C416.712 14.4 406.417 13.646 396 13v-1l2.922-.076q5.348-.142 10.695-.296 2.317-.066 4.636-.125 3.324-.088 6.65-.187l2.105-.05c3.28.169 3.28.169 5.992-1.266" fill="#EEC237"/><path d="M555 70h2v3h-2q.161 11.853.34 23.705.083 5.504.157 11.007.072 5.31.156 10.62.044 3.015.081 6.028l.06 3.7.048 3.263c.048 2.78.048 2.78 1.158 5.677l-1 3-2-1q-.034-13.274-.052-26.546-.007-6.163-.023-12.326-.016-5.942-.02-11.885-.003-2.272-.01-4.544-.01-3.171-.009-6.343l-.006-3.654C554 71 554 71 555 70" fill="#459C57"/><path d="M598 14v3c-2.062 1.375-2.062 1.375-5 3a281 281 0 0 0-5.45 4.012C586 25 586 25 584 25l-.687 2.313c-1.58 3.234-3.146 4.103-6.313 5.687l-2-2c16.093-17 16.093-17 23-17" fill="#3EA1A6"/><path d="M442 197h32v3h-32z" fill="#46A74B"/><path d="M701 37h35v1c-7.461 2.01-14.36 2.24-22.062 2.125l-3.49-.027Q706.222 40.063 702 40z" fill="#316EB4"/><path d="m128 193 2.063.438c3.3.631 6.608 1.105 9.937 1.562l1-2 1 3c2.55.87 4.947 1.539 7.563 2.125l2.095.512c4.76 1.126 9.481 1.827 14.342 2.363v1c-12.581.748-27.575-.288-38-8z" fill="#D26648"/><path d="M122 184c3.625-.201 5.865.142 9 2l1-1h2l-.187 2.75c.204 3.54.833 4.7 3.187 7.25-3.024-.588-6.018-1.227-9-2v-2l-3-1c-.687-2.062-.687-2.062-1-4h-2z" fill="#EA5C3D"/><path d="m182 144 4 1c-.256 1.94-.53 3.877-.812 5.813l-.458 3.269c-.746 2.982-1.35 4.06-3.73 5.918l-8-4 2.813-1.5c4.064-2.652 4.829-5.972 6.187-10.5" fill="#E47C3E"/><path d="m564 160 3 1c.735 1.638 1.46 3.282 2.105 4.957 1.302 2.972 3.09 5.567 4.907 8.246C575 176 575 176 575 179l4 1 .375 1.938L580 184l2 1c-3 0-3 0-4.797-1.512C571.702 177.36 564 168.596 564 160" fill="#47A3A6"/><path d="m456.86 9.707 3.378.03 3.512.075 3.559.042q4.346.053 8.691.146l-4 1v2h-25c4.233-3.175 4.906-3.369 9.86-3.293" fill="#37B637"/><path d="m227 45 3 1-1 3.063c-.765 2.641-.992 4.369-.937 7.187-.087 5.19-1.562 9.809-3.063 14.75h-2c.387-9.013 1.476-17.331 4-26" fill="#D39355"/><path d="m67.875 9.875 3.492.055L74 10c-2.858 2.858-5.147 2.408-9.125 2.625l-3.883.227L58 13c-1.08 3.239-1.204 5.792-1.316 9.2l-.127 3.661-.12 3.826-.13 3.862Q56.147 38.274 56 43h-1V12c5.109-1.703 7.727-2.23 12.875-2.125" fill="#B02E54"/><path d="M233 146h2v10l2 1-3 1-.148 2.082-.227 2.73c-.07.894-.14 1.787-.21 2.708C233 168 233 168 231 171h-2l.367-2.168A1430 1430 0 0 0 233 146" fill="#D49254"/><path d="M431 53c-3.756 1.724-6.766 2.267-10.887 2.344l-3.342.09-6.953.132-3.33.09-3.045.057c-2.621.052-2.621.052-4.443 2.287v-5q6.112-.252 12.225-.482 2.08-.08 4.159-.166 2.99-.122 5.98-.23l3.633-.144C428 52 428 52 431 53" fill="#EEBF3F"/><path d="M554 141h2c-1.392 10.55-4.562 20.416-11 29l-2-2 2-4h2l.438-1.75L549 156h2l.148-2.012c.743-8.77.743-8.77 2.852-12.988" fill="#4E8D5A"/><path d="M316 34h1q.075 5.927.11 11.853c.015 2.006.04 4.012.066 6.018l.02 3.809.031 3.523C317 62 317 62 315 64c-3.125.125-3.125.125-6 0l-1-3h3l1-3 3-2c.508-2.318.508-2.318.512-5.008l.107-2.988.068-3.129.104-3.152q.124-3.86.209-7.723" fill="#D79E56"/><path d="M858 16h2c.832 11.59 1.565 22.575-1 34h-1z" fill="#325E91"/><path d="M615 9q6.774-.149 13.55-.22 2.298-.03 4.596-.082C642.095 8.5 649.918 8.585 658 13v1c-5.625.25-5.625.25-9-2-7.185-1.144-14.301-1.12-21.562-1.062l-3.346.013q-4.047.018-8.092.049z" fill="#38A9AD"/><path d="M697 192c2.981 1.49 5.487 2.974 7 6h38v1q-8.89.111-17.78.165-3.024.022-6.05.061c-2.896.037-5.793.054-8.69.067-.903.015-1.806.03-2.737.047h-2.547l-2.24.02c-2.565-.472-3.447-1.252-4.956-3.36z" fill="#3C6C8B"/><path d="M218 76c2.338 2.338 2.474 3.432 3.063 6.625l.496 2.688c.584 3.555 1.043 7.106 1.441 10.687h-6l-1-2 4-1c-.407-2.934-.733-4.67-2.625-7-1.375-2-1.375-2-1.125-4.562.56-1.82 1.148-3.632 1.75-5.438" fill="#E0803B"/><path d="M224 72h1l.684 6.152c.135 1.86.135 1.86 1.316 2.848.232 1.515.412 3.038.563 4.563l.253 2.503L228 90l3 1a125 125 0 0 1 2 5l2 1v3l-3 1c-5.255-9.915-8.472-17.679-8-29" fill="#D19256"/><path d="M565 47c1.062 3.262.897 5.429.125 8.75-.97 4.415-1.626 8.759-2.125 13.25h-2v11h-1c-1.283-8.72-.656-15.618 2-24l.871-2.754A321 321 0 0 1 565 47" fill="#43A9AA"/><path d="M113 176c4.24 1.515 5.639 4.31 8 8 1.852 1.964 3.773 3.79 5.75 5.625C128 191 128 191 128 193c-3.957-1.674-6.845-4.131-10-7v-2l-3-1c-1.687-3.062-1.687-3.062-3-6z" fill="#C65746"/><path d="M300 8c6.622.307 11.221 1.743 17 5l-1 3-2-2c-2.44-.243-2.44-.243-5.125-.125l-2.758.055L304 14v-2l-4-1z" fill="#DCA252"/><path d="M605 194c3 1 3 1 4.125 2.938L610 199l1 2c-6.93.77-11.898-1.91-18-5 3-1 3-1 5.438.125L601 197c2.133-1.392 2.133-1.392 4-3" fill="#45A9B8"/><path d="M282 81c5.673-.293 8.99-.006 14 3-2.576 2.116-4.625 3.673-8 4l-3-2h2v-2l-3 1z" fill="#E29948"/><path d="M703 42c3.458-.058 6.916-.094 10.375-.125l2.984-.05 2.852-.02 2.634-.032C724 42 724 42 726 44c-5.173 1.063-10.124 1.117-15.375 1.063l-2.52-.014q-3.053-.02-6.105-.049z" fill="#2966BD"/><path d="M434 12h3l-1 3a73 73 0 0 0-.205 4.288l-.06 2.608-.051 2.803-.063 2.88q-.097 4.554-.183 9.109l-.131 6.173q-.16 7.57-.307 15.139h-2q-.037-9.585-.055-19.171-.008-3.264-.02-6.527-.017-4.68-.023-9.36l-.015-2.968v-2.73l-.007-2.415C433 13 433 13 434 12" fill="#88B460"/><path d="M483 11c9.563-.416 19.766-.49 28 5-5.517.125-5.517.125-7.836-.477-2.684-.649-5.284-.789-8.039-.96-4.333-.329-8.076-.876-12.125-2.563z" fill="#569756"/><path d="M504 195c-6.662 4.441-15.337 4.474-23 3l-1-3 3.21.035 4.165.028 2.117.025c5.32.025 9.122-.986 14.508-.088" fill="#52A555"/><path d="M21 148c2 .997 3.994 1.997 5.973 3.035C32.94 153.97 38.387 154.753 45 155l-1 2q-2.656.039-5.312.063l-2.989.035C33 157 33 157 30 156v-2l-2.187.313c-3.933-.437-5.276-2.414-7.813-5.313z" fill="#A93452"/><path d="M228 141h1q.039 3.344.063 6.688l.035 3.761c-.083 3.013-.39 5.634-1.098 8.551l-4-2 1-13 3-1z" fill="#DC833D"/><path d="m632 50 2 2 2.563.875C639 54 639 54 639.813 56.125L640 58l-2.812-2c-5.906-3.385-12.501-2.729-18.875-1L616 56v-3c5.163-3.261 10.03-3.827 16-3" fill="#52A3AA"/><path d="M86 187h3c-3.056 7.125-10.306 10.417-17.117 13.336C70 201 70 201 68 201v-2l6-1v-2c6.75-4 6.75-4 9-4v-2h2z" fill="#AD3553"/><path d="m327 176 2 1c-13.435 16.243-13.435 16.243-22 18v-2a157 157 0 0 1 5-3l2.688-2.187C317 186 317 186 319 186v-3c1.65-1.026 3.32-2.023 5-3 1.783-2.07 1.783-2.07 3-4" fill="#D0995B"/><path d="M684 37c3.34 3.788 5.371 7.647 7.188 12.313l.787 1.896C693.8 55.81 694.546 60.072 695 65c-3.006-3.006-2.596-5.824-3-10l-3-1c-.879-2.434-.879-2.434-1.562-5.437-.873-4.235-.873-4.235-3.438-7.563z" fill="#3C97A2"/><path d="M229 195c6.525-.376 6.525-.376 8.781 1.41 3.028 2.17 5.82 2.543 9.469 3.215l2.018.378c4.563.839 9.117 1.526 13.732 1.997v1c-12.169.816-22.955-2.064-34-7z" fill="#D39763"/><path d="m502 145 2 1v5h-7v2l-9 3-3-3 2.195-.48c6.219-1.501 10.264-2.979 14.805-7.52" fill="#569559"/><path d="M696 108h1c1.496 9.723 1.298 19.264 0 29h-1c-.876-3.694-1.061-6.951-.879-10.738l.147-3.233.17-3.341.158-3.4q.194-4.145.404-8.288" fill="#3199A9"/><path d="M227 174h1c.074 3.62.003 6.98-.562 10.563-.44 3.446-.179 6.063.562 9.437-3.875-1.875-3.875-1.875-5-3-.626-5.01 1.328-9.373 3-14z" fill="#D79354"/><path d="M652 100h1q.08 3.813.125 7.625l.05 2.16c.042 4.476-.484 7.994-2.175 12.215h-1c-.194-14.104-.194-14.104 1-21z" fill="#39A1AF"/><path d="M515 17c6.967 1.834 14.097 5.65 19 11-3.75 1.125-3.75 1.125-6 0v-3l-6-1v-2l-2.937-.812L516 20z" fill="#4F8452"/><path d="m744 193 1 3c-2 2-2 2-5.807 2.227q-2.46-.001-4.92-.032l-2.614-.008c-2.762-.011-5.523-.037-8.284-.062q-2.805-.016-5.61-.027-6.882-.035-13.765-.098v-1l3.349-.044c4.098-.058 8.196-.135 12.294-.218q2.66-.051 5.323-.084c2.55-.034 5.098-.086 7.647-.142l2.406-.02c4.299-.069 4.299-.069 8.005-2.024z" fill="#276A97"/><path d="M300 195h7c-5.689 5.194-13.6 6.327-21 7 1.865-2.628 3.304-3.864 6.492-4.488A133 133 0 0 1 300 197z" fill="#D39653"/><path d="M649 123h1c.554 16.708.554 16.708-3 25h-3l.84-3.184c1.886-7.268 3.623-14.3 4.16-21.816" fill="#40999D"/><path d="m236 141 5 2v2l1.625.75c2.94 1.547 5.633 3.38 8.375 5.25-2.892.826-4.887 1-8 1v-2h-2v-3h-2v-4l-4-1z" fill="#D09253"/><path d="M611 56h5l-1.207 1.582c-4.23 5.876-6.29 11.36-7.793 18.418h-1c-.369-9.41-.369-9.41 2-14h2l-1-3h2z" fill="#40A5AC"/><path d="m610 148 2.25 2.313c5.012 4.898 8.43 6.672 15.438 7.25l3.011.253L633 158v1c-2.208.082-4.416.14-6.625.188l-3.727.105c-3.965-.318-6.317-1.147-9.648-3.293l-1-3a90 90 0 0 0-4-4z" fill="#3D9AA1"/><path d="M779 56h2v16l-2 1c-1.08-3.239-1.133-5.66-1.125-9.062l-.008-3.223C778 58 778 58 779 56" fill="#216392"/><path d="M112 13c-1 3-1 3-3 4l-1 33h-1a1943 1943 0 0 1-.165-14.844 786 786 0 0 0-.061-5.052 761 761 0 0 1-.067-7.252c-.015-.756-.03-1.511-.047-2.29 0-2.122 0-2.122.34-5.562 3-2 3-2 5-2" fill="#E55339"/><path d="m713 10 2.29.465c5.02.724 10.02.898 15.085 1.098l3.098.13q3.764.159 7.527.307l-1 2-32-1v-1h5z" fill="#3A76AA"/><path d="M666 193a983 983 0 0 1-7.687 4l-2.186 1.156c-3.832 1.96-6.7 3.403-11.127 2.844 2.61-1.74 5.133-3.117 7.938-4.5l2.59-1.281L658 194l2.066-1.219c2.404-.97 3.501-.491 5.934.219" fill="#46A0A5"/><path d="m74.125 192.438 2.758.308L79 193c-4.263 4.13-7.288 4.613-13 5l2-2-1-3c2.623-1.312 4.23-.896 7.125-.562" fill="#D5335B"/><path d="M561 144h2v2l2 1q.079 2.687.125 5.375l.07 3.023C565 158 565 158 563 160a384 384 0 0 1-1.562-5.187l-.88-2.918c-.583-3.023-.37-4.954.442-7.895" fill="#42A5A6"/><path d="M313 93c6.108 3.054 10.354 7.028 15 12l-2 4c-3.797-4.557-3.797-4.557-5-7.187-1.29-2.337-2.607-2.725-5-3.813-1.75-1.5-1.75-1.5-3-3z" fill="#D29354"/><path d="m285.938 52.813 3.152-.043c2.86.226 4.487.753 6.91 2.23l-3.07.113-4.055.2-2.016.068c-4.618.249-7.873 1.303-11.859 3.619.813-2.437.813-2.437 2-5 3.192-1.064 5.585-1.167 8.938-1.187" fill="#D89D5D"/><path d="M229 23q.039 2.156.063 4.313l.035 2.425C229 32 229 32 228 35h-2l-1 5h-1c-.285-5.421.415-10.806 2-16 2-1 2-1 3-1" fill="#E48341"/><path d="m251 152 2.746.84c6.759 2.01 13.19 3.673 20.254 4.16v1c-7.855.32-15.27-.643-23-2z" fill="#DB9459"/><path d="M673 24c5.012 3.844 8.169 7.337 11 13h-3v-3l-1.937-.875C677 32 677 32 676 30c-2.017-1.134-2.017-1.134-4-2z" fill="#3B9AA5"/><path d="m200 11 3.5.563L206 12v1l-3.797.148-4.953.227-2.5.094-2.422.117-2.222.095c-2.355.357-4.04 1.156-6.106 2.319.625-1.875.625-1.875 2-4 4.91-2.455 8.816-1.946 14-1" fill="#D96E30"/><path d="M516.563 188.938 520 189c-1.592 3.184-4.86 3.548-8.062 4.625l-2.01.695c-1.64.567-3.284 1.124-4.928 1.68v-4l3.438-.937c7.062-2.107 7.062-2.107 8.125-2.125" fill="#559B57"/><path d="M330 110c4.504 4.066 6.83 9.565 7.25 15.563L337 128h-2l-.332-1.828c-.906-4.565-1.768-7.481-4.668-11.172-.187-2.75-.187-2.75 0-5" fill="#D09C5F"/><path d="M228 11h2c2.25 3.603 2.299 6.68 2.313 10.875l.05 3.617C231.97 29.286 230.9 31.722 229 35c-1.097-3.29-.8-4.713 0-8h1V16l-2-1z" fill="#C38251"/><path d="m52 151 1 2-1 2h-2v3c-5.361 1.129-10.553 1.097-16 1l1-2c1.996-.344 1.996-.344 4.438-.5 3.728-.151 3.728-.151 6.562-2.5h3c1.688-1.438 1.688-1.438 3-3" fill="#CC2F56"/><path d="M252 118h8v2l2.813-.25C266 120 266 120 267.875 122l1.125 2c-6.622-.307-11.221-1.743-17-5z" fill="#DF9453"/><path d="M486 55c9.204-.632 9.204-.632 12.438 1.938L500 59l3 1-1 2c-2.972-1.125-5.334-2.223-8-4-2.046-.662-2.046-.662-4.187-1.125L486 56z" fill="#649B65"/><path d="M350 186h1l.375 3.438L352 193l2 1v3l7 2v1c-7.44-.61-7.44-.61-9.75-2.219-1.697-2.418-1.551-4.045-1.437-6.969l.082-2.73z" fill="#F0BF4A"/><path d="M229 130h1c.058 4.437.094 8.875.125 13.313l.05 3.826.02 3.662.032 3.38C230 157 230 157 228 160c-.562-1.937-.562-1.937-1-4l1-1c.158-1.852.251-3.71.316-5.566l.127-3.409.12-3.588.13-3.6q.16-4.417.307-8.837" fill="#C97C42"/><path d="M318 14h2v18h-1v-6h-2z" fill="#E8B339"/><path d="M82 10v3H61v-1l2.336-.184 3.039-.254c.998-.08 1.995-.162 3.023-.246C80.43 9.975 80.43 9.975 82 10" fill="#C3234A"/><path d="M598 14v3c-2.062 1.375-2.062 1.375-5 3-2.364 1.626-4.677 3.315-7 5l-2-1 7-5-1-2c5.75-3 5.75-3 8-3" fill="#3CA9B3"/><path d="m581 186 6 1v2l3 1c1.688 2.563 1.688 2.563 3 5-4.908-1.487-8.405-4.446-12-8z" fill="#46A3A7"/><path d="M646 68h3c1.336 4.842 2.253 8.934 2 14-3.151-2.53-3.588-4.768-4.187-8.687-.16-.994-.318-1.988-.481-3.012z" fill="#419FA7"/><path d="M226 56c1.71 2.584 2.052 3.683 1.54 6.797-.303.974-.604 1.949-.915 2.953l-.898 2.984L225 71h-2c-.426-5.537 1.095-9.897 3-15" fill="#D99448"/><path d="M442 197h12v2l-12 1z" fill="#3DAA46"/><path d="M182 145h1v9h-4v2l-6 1 2.313-1.687c3.539-3.046 5.221-5.915 6.687-10.313" fill="#C77651"/><path d="m746 49 1.563 1.938c3.096 2.62 5.458 2.756 9.437 3.062v1h-11l-2-4z" fill="#2E5C99"/><path d="M191 197h9c-3.438 3.438-7.11 3.971-11.875 4.125L185 201c3.75-2 3.75-2 6-2z" fill="#C28251"/><path d="M190.625 12.875 193 13c-1.312 1.5-1.312 1.5-3 3h-3v16h-1q-.08-4.187-.125-8.375l-.05-2.406c-.018-2.074.072-4.148.175-6.219 2-2 2-2 4.625-2.125" fill="#EC853A"/><path d="M482 10c3 1 3 1 6 3l-2.375.938c-2.548.99-2.548.99-4.625 2.062-1.54.07-3.083.085-4.625.063l-2.477-.028L472 16c2.662-1.376 5.063-2.37 8-3v-2z" fill="#4CA44B"/><path d="M227 160c1.214 3.496.777 5.69-.312 9.188l-.801 2.667C225 174 225 174 223 175c-1.125-3.75-1.125-3.75 0-6h2l.438-2.812C226 163 226 163 227 160" fill="#C7844C"/><path d="m650 123 2 1v10l2 1-4 2z" fill="#34B0B3"/><path d="M244 20c1 2 1 2 .938 3.938-1.433 3.152-3.855 3.706-6.938 5.062l-3 2c1.408-3.215 3.103-5.322 5.625-7.75l1.914-1.86z" fill="#D59A61"/><path d="M624 202v1c-1.916.054-3.833.093-5.75.125l-3.234.07c-2.94-.19-4.54-.668-7.016-2.195 5.233-1.884 10.733-.117 16 1" fill="#4DA3A9"/><path d="M234 102h3c1.79 1.898 1.79 1.898 3.625 4.375l1.852 2.46C244 111 244 111 245 113c-4.473-1.988-8.162-4.243-10.312-8.75z" fill="#D29756"/><path d="M632 50v1l-1.934.148-2.504.227-2.496.21L623 52l-1 2a101 101 0 0 1-6 2v-3c5.373-3.394 9.87-3.327 16-3" fill="#3BA9AD"/><path d="M825 57c2 2 2 2 2.043 3.88l-.285 2.253-.293 2.441-.34 2.551-.316 2.574A837 837 0 0 1 825 77h-1q-.04-3.594-.062-7.187l-.026-2.042c-.018-3.725.195-7.15 1.088-10.771" fill="#2B6189"/><path d="m352 55-1 3-3-1v-2h-12v-1c5.614-.871 10.712-1.644 16 1" fill="#F0BC4A"/><path d="M198.688 193.813 202 194l1 3h-11c3-3 3-3 6.688-3.187" fill="#DA8439"/><path d="m211 189 2 1c-2.548 2.972-5.453 4.415-9 6h-2l1-4 3.438-.937c3.35-.692 3.35-.692 4.562-2.063" fill="#C68151"/><path d="M108 163h4l-1 4 2 1-1 4c-4-4.5-4-4.5-4-9" fill="#E1543D"/><path d="M565 47c1.137 3.404.84 5.775.063 9.25l-.59 2.703L564 61l-3 1c.674-5.258 2.243-10.026 4-15" fill="#499F9F"/><path d="M94 11c3.947-.18 6.598-.094 10 2v2h-3l-1 2v-2l-3-1v-2z" fill="#B34757"/><path d="M497 12c4.97.412 9.445.796 14 3v1c-3.537.08-6.608.018-10-1l-2.25-.562L497 14z" fill="#588D5C"/><path d="M51 201h11v2l-9 1z" fill="#B2354E"/><path d="M234 31c1 3 1 3 1 6h-3v4h-3c1.335-3.594 2.96-6.755 5-10" fill="#D19454"/><path d="M504 195c-3.445 2.296-5.938 2.54-10 3l-1-2c3.77-2.564 6.674-1.832 11-1" fill="#539A5C"/><path d="M331 167c1.188 1.688 1.188 1.688 2 4-1.25 2.75-1.25 2.75-3 5h-2v-5h2z" fill="#DCA04A"/><path d="M235 143h4l-1 5h-3v-2l-2-1z" fill="#E99843"/><path d="M228 141c1.456 4.52.27 7.516-1 12l-2-1v-8h3z" fill="#E98438"/><path d="M605 78c1.163 3.55.924 6.558.563 10.25l-.31 3.266L605 94h-1q-.33-3.435-.625-6.875l-.352-3.867L603 80z" fill="#489CA7"/><path d="M602 67h4v9l-2 1 1-6-3-1z" fill="#30B0B4"/><path d="M296 55c3.075.07 6.011.248 9 1 2.063 2.563 2.063 2.563 3 5-4.035-1.59-8.018-3.282-12-5z" fill="#CE9958"/><path d="M236 30h1v9h-3l-2-2h3l-.625-1.812C234 33 234 33 236 30" fill="#EA9D49"/><path d="M225 10h3l1 6-3 2-2-2c.375-3.125.375-3.125 1-6" fill="#DF8C47"/><path d="m647 197 2 2c-4.93 2.04-8.58 3.407-14 3 2.686-1.79 4.663-2.66 7.688-3.625.808-.26 1.616-.52 2.449-.79.615-.192 1.23-.386 1.863-.585" fill="#37ABB5"/><path d="m651 95 2 1-.437 2c-.686 3.656-1.125 7.306-1.563 11h-1q-.04-2.937-.062-5.875l-.036-3.305C650 97 650 97 651 95" fill="#53959F"/><path d="M698 51h1q.33 3.937.625 7.875l.195 2.262c.14 1.95.168 3.908.18 5.863l-2 2c-1.3-3.815-.894-7.276-.562-11.25l.308-3.828z" fill="#417AAD"/><path d="m482 10-2 1v2h-8v-2c3.38-1.04 6.478-1.08 10-1" fill="#5C8F59"/><path d="M697 95c2 3 2 3 2 6h-2v7h-1q-.04-2.97-.062-5.937l-.036-3.34C696 96 696 96 697 95" fill="#2BAEBA"/><path d="m608 64 2 1-3 11h-1a280 280 0 0 1-.125-4.312l-.07-2.426C606 67 606 67 608 64" fill="#489CA5"/><path d="M435 40h1l2 12-3 2z" fill="#5FA251"/><path d="M526 23c3.375 1.186 5.647 2.276 8 5-3.75 1.125-3.75 1.125-6 0v-3h-2z" fill="#528E57"/><path d="m251 152 10 3v1h-10z" fill="#D0905B"/><path d="M20 151c2.962.613 4.38 1.254 7 3v2l2 1h-2l-1 3-.875-2.437c-.858-2.696-.858-2.696-3.125-3.563v-2z" fill="#D7365F"/><path d="m251 17 1 3h-2v2l-6 1 1-3c2.5-1.125 2.5-1.125 5-2z" fill="#E99A4F"/><path d="M658 14c3.775 1.09 6.47 1.908 9 5-3.123-.486-5.996-.999-9-2z" fill="#479EA8"/><path d="M697 192c2.981 1.49 5.487 2.974 7 6-2.375.125-2.375.125-5 0l-2-2z" fill="#4B769D"/><path d="m564 160 3 1 1 8c-2.503-2.938-3.47-5.179-4-9" fill="#489C9D"/><path d="m694 131 2 1c.625 3.063.625 3.063 1 6l-5 1v-3h2z" fill="#2BAAB7"/><path d="m713 10 6 1v2h-11v-1h5z" fill="#3268B8"/><path d="m87 185 3 2-1.937.375L86 188l-1 2c-2.062.625-2.062.625-4 1v-4c2.813-1.125 2.813-1.125 6-2" fill="#D5385E"/><path d="M687 161h1c.18 3.947.094 6.598-2 10h-2z" fill="#39A0A8"/><path d="m45 154 1 4c-2.525 1.262-4.312 1.099-7.125 1.063l-2.758-.028L34 159l1-2c2.323-.393 4.618-.507 6.969-.656L44 156z" fill="#CC284B"/><path d="m603 130 .875 1.938c.953 2.214.953 2.214 3.125 3.062v4h-2v-2h-2z" fill="#37ADB4"/><path d="M506 71h3c1.607 3.215 1.057 6.436 1 10-1.737-3.225-2.89-6.513-4-10" fill="#5E8F63"/><path d="M554 63h2v7l-2 1a177 177 0 0 1-1-7z" fill="#4F9159"/><path d="M141 13h6l-1 3h-6z" fill="#ED5F40"/><path d="m223 186 2 1v4l3 1v2c-3.875-1.875-3.875-1.875-5-3a100 100 0 0 1 0-5" fill="#CC9769"/><path d="m220 91 3 3-1 2h-5l-1-2 4-1z" fill="#EA8541"/><path d="m648 10 10 3v1c-2.75.25-2.75.25-6 0-2.375-2-2.375-2-4-4" fill="#41A0A1"/></svg>